<svg width="24" height="24" viewBox="0 0 24 24" fill="none" xmlns="http://www.w3.org/2000/svg">
<path d="M9.02056 17.3539C9.02056 17.4265 8.9371 17.4845 8.83185 17.4845C8.7121 17.4954 8.62863 17.4373 8.62863 17.3539C8.62863 17.2814 8.7121 17.2233 8.81734 17.2233C8.92621 17.2124 9.02056 17.2705 9.02056 17.3539ZM7.89194 17.1907C7.86653 17.2632 7.93911 17.3467 8.04798 17.3684C8.14234 17.4047 8.25121 17.3684 8.27298 17.2959C8.29476 17.2233 8.22581 17.1399 8.11694 17.1072C8.02258 17.0819 7.91734 17.1181 7.89194 17.1907ZM9.49597 17.129C9.39073 17.1544 9.31814 17.2233 9.32903 17.3068C9.33992 17.3793 9.43427 17.4265 9.54315 17.4011C9.64839 17.3757 9.72097 17.3068 9.71008 17.2342C9.69919 17.1653 9.60121 17.1181 9.49597 17.129ZM11.8839 3.22882C6.8504 3.22882 3 7.04847 3 12.0797C3 16.1025 5.53306 19.5449 9.15121 20.7564C9.61573 20.8398 9.77903 20.5533 9.77903 20.3175C9.77903 20.0926 9.76814 18.852 9.76814 18.0903C9.76814 18.0903 7.22782 18.6344 6.69435 17.0093C6.69435 17.0093 6.28065 15.9537 5.68548 15.6817C5.68548 15.6817 4.85444 15.1122 5.74355 15.1231C5.74355 15.1231 6.64718 15.1956 7.14435 16.0589C7.93911 17.4591 9.27097 17.0565 9.78992 16.8171C9.87339 16.2367 10.1093 15.834 10.3706 15.5946C8.34194 15.3697 6.29516 15.0759 6.29516 11.5863C6.29516 10.5888 6.57097 10.0882 7.15161 9.44981C7.05726 9.21403 6.74879 8.24189 7.24597 6.98681C8.00444 6.75103 9.75 7.9662 9.75 7.9662C10.4758 7.76307 11.256 7.65788 12.029 7.65788C12.802 7.65788 13.5823 7.76307 14.3081 7.9662C14.3081 7.9662 16.0536 6.7474 16.8121 6.98681C17.3093 8.24551 17.0008 9.21403 16.9065 9.44981C17.4871 10.0919 17.8427 10.5924 17.8427 11.5863C17.8427 15.0868 15.7052 15.3661 13.6766 15.5946C14.0105 15.8812 14.2935 16.4253 14.2935 17.2777C14.2935 18.5002 14.2827 20.0128 14.2827 20.3102C14.2827 20.546 14.4496 20.8326 14.9105 20.7492C18.5395 19.5449 21 16.1025 21 12.0797C21 7.04847 16.9173 3.22882 11.8839 3.22882ZM6.52742 15.7397C6.48024 15.776 6.49113 15.8594 6.55282 15.9283C6.61089 15.9864 6.69435 16.0118 6.74153 15.9646C6.78871 15.9283 6.77782 15.8449 6.71613 15.776C6.65806 15.718 6.5746 15.6926 6.52742 15.7397ZM6.13548 15.4459C6.11008 15.4931 6.14637 15.5511 6.21895 15.5874C6.27702 15.6236 6.3496 15.6128 6.375 15.562C6.4004 15.5148 6.36411 15.4568 6.29153 15.4205C6.21895 15.3987 6.16089 15.4096 6.13548 15.4459ZM7.31129 16.7373C7.25323 16.7844 7.275 16.8932 7.35847 16.9622C7.44194 17.0456 7.54718 17.0565 7.59435 16.9984C7.64153 16.9513 7.61976 16.8424 7.54718 16.7735C7.46734 16.6901 7.35847 16.6792 7.31129 16.7373ZM6.89758 16.204C6.83952 16.2403 6.83952 16.3346 6.89758 16.418C6.95565 16.5015 7.05363 16.5377 7.10081 16.5015C7.15887 16.4543 7.15887 16.36 7.10081 16.2766C7.05 16.1931 6.95565 16.1569 6.89758 16.204Z" fill="black"/>
</svg>
