<svg width="24" height="24" viewBox="0 0 24 24" fill="none" xmlns="http://www.w3.org/2000/svg">
<path d="M12.002 7.38503C9.44808 7.38503 7.38806 9.4455 7.38806 12C7.38806 14.5545 9.44808 16.615 12.002 16.615C14.5559 16.615 16.616 14.5545 16.616 12C16.616 9.4455 14.5559 7.38503 12.002 7.38503ZM12.002 15.0003C10.3516 15.0003 9.00234 13.6548 9.00234 12C9.00234 10.3452 10.3476 8.99967 12.002 8.99967C13.6564 8.99967 15.0017 10.3452 15.0017 12C15.0017 13.6548 13.6524 15.0003 12.002 15.0003V15.0003ZM17.8809 7.19625C17.8809 7.79471 17.399 8.27268 16.8047 8.27268C16.2064 8.27268 15.7285 7.79069 15.7285 7.19625C15.7285 6.60181 16.2104 6.11983 16.8047 6.11983C17.399 6.11983 17.8809 6.60181 17.8809 7.19625ZM20.9368 8.28874C20.8685 6.84681 20.5392 5.56956 19.4831 4.51724C18.431 3.46491 17.154 3.13556 15.7124 3.06326C14.2267 2.97891 9.77334 2.97891 8.28756 3.06326C6.84997 3.13154 5.57301 3.46089 4.5169 4.51322C3.46079 5.56555 3.13553 6.8428 3.06325 8.28473C2.97892 9.77084 2.97892 14.2251 3.06325 15.7113C3.13151 17.1532 3.46079 18.4304 4.5169 19.4828C5.57301 20.5351 6.84596 20.8644 8.28756 20.9367C9.77334 21.0211 14.2267 21.0211 15.7124 20.9367C17.154 20.8685 18.431 20.5391 19.4831 19.4828C20.5352 18.4304 20.8645 17.1532 20.9368 15.7113C21.0211 14.2251 21.0211 9.77485 20.9368 8.28874V8.28874ZM19.0173 17.3058C18.7041 18.093 18.0977 18.6995 17.3066 19.0168C16.122 19.4868 13.3111 19.3783 12.002 19.3783C10.6929 19.3783 7.87797 19.4828 6.69738 19.0168C5.91032 18.7036 5.30396 18.0971 4.98673 17.3058C4.5169 16.1209 4.62532 13.3094 4.62532 12C4.62532 10.6906 4.52091 7.87504 4.98673 6.69419C5.29994 5.90695 5.9063 5.30046 6.69738 4.98315C7.88199 4.51322 10.6929 4.62167 12.002 4.62167C13.3111 4.62167 16.126 4.51724 17.3066 4.98315C18.0937 5.29644 18.7001 5.90293 19.0173 6.69419C19.4871 7.87906 19.3787 10.6906 19.3787 12C19.3787 13.3094 19.4871 16.125 19.0173 17.3058Z" fill="black"/>
</svg>
